<svg width="46" height="48" viewBox="0 0 46 48" fill="none" xmlns="http://www.w3.org/2000/svg">
<path d="M15.3333 6C10.0414 6 5.75 10.478 5.75 16V32C5.75 37.522 10.0414 42 15.3333 42H30.6667C35.9586 42 40.25 37.522 40.25 32V16C40.25 10.478 35.9586 6 30.6667 6H15.3333ZM34.5 10C35.558 10 36.4167 10.896 36.4167 12C36.4167 13.104 35.558 14 34.5 14C33.442 14 32.5833 13.104 32.5833 12C32.5833 10.896 33.442 10 34.5 10ZM23 14C28.2919 14 32.5833 18.478 32.5833 24C32.5833 29.522 28.2919 34 23 34C17.7081 34 13.4167 29.522 13.4167 24C13.4167 18.478 17.7081 14 23 14ZM23 18C21.475 18 20.0125 18.6321 18.9341 19.7574C17.8558 20.8826 17.25 22.4087 17.25 24C17.25 25.5913 17.8558 27.1174 18.9341 28.2426C20.0125 29.3679 21.475 30 23 30C24.525 30 25.9875 29.3679 27.0659 28.2426C28.1442 27.1174 28.75 25.5913 28.75 24C28.75 22.4087 28.1442 20.8826 27.0659 19.7574C25.9875 18.6321 24.525 18 23 18Z" fill="white"/>
</svg>
